/* XPM */
static char *c67e1dd95cd049f7aefe49e4ad5253a4mwgQW9MtjjCKwJ04[] = {
/* columns rows colors chars-per-pixel */
"64 64 51 1 ",
"  c #699CF7",
". c #699DFA",
"X c #6DA2FB",
"o c #72A6FC",
"O c #73AAFE",
"+ c #74A8FD",
"@ c #74ABFC",
"# c #74A8FE",
"$ c #75A8FE",
"% c #76A9FE",
"& c #73ACFE",
"* c #77ACFC",
"= c #75ACFE",
"- c #78ABFC",
"; c #78ABFD",
": c #7BACFD",
"> c #79AEFC",
", c #78ACFE",
"< c #85B2FD",
"1 c #87B4FC",
"2 c #87B5FC",
"3 c #87B4FD",
"4 c #85B4FE",
"5 c #8BB7FB",
"6 c #88B3FD",
"7 c #88B5FD",
"8 c #8AB5FC",
"9 c #8AB7FD",
"0 c #8BB7FD",
"q c #8DB5FC",
"w c #8CB7FC",
"e c #8CB7FD",
"r c #8CB8FD",
"t c #8DB8FD",
"y c #8FB9FC",
"u c #8DB8FE",
"i c #90B7FB",
"p c #90B7FC",
"a c #90B8FC",
"s c #90B9FC",
"d c #94B9FC",
"f c #9FC2FE",
"g c #A2C3FD",
"h c #A2C3FE",
"j c #A2C4FD",
"k c #A5C5FD",
"l c #A5C7FD",
"z c #AAC7FE",
"x c #A7C8FC",
"c c #AAC9FE",
"v c #ABC8FF",
/* pixels */
"......    ..o$$$$=$*jczkieee;=$&=&=O&$=&oXXXX Xo7iwiieiepep6;$OO",
"......    ..o$$$$=Oogzcjiewe=&=&O=OOO&OOXXXXXo Xwwiweieiepi6;$O&",
"........ ...;$;$$$&=gckkiwie;$O=&&$&OO$$o.XXX Xo6iwist55peieO&O&",
"............$$$$>;=;gkkjwe76==O&$=&&OO&&XXXXXoooeiee75t77ee6*&oo",
". ......$$$=$$$$777tssst;#$==$=&OOOOXXXXXoXXOO=$eeee:%o$ooXo.X .",
". ......$$$$$;==wtttt7t7$$OO&&$&OOOOXXXXXXXXOOO;6ipe%%OO.X.X.   ",
"........O$$=$=&=7tt7tts7;O&O$&&&O$OOXXXXXXXXX=O$eppe;$=oXXo.. . ",
"........O$$$;$$=75t5t777$OO==&$&OOO$XXXXXXXXO=$;6ee7%$O&o..o. . ",
"....XXXXo$$O$$&$==;==;=;&$$&&$$OXXX$XXXX#O#$17e6==&&XXXX........",
"....XXXXO&&==&&=O&$===&&&&=&&&OXXXXXXXXXO$$$7see>O&XXXXX........",
"....XXXXO=&$$&=&$=&$$&&&$=&$$=OOXXXXXXXX$$&=te57$$&&XXXX........",
"....XXXXXOOO&=$&&&&&&=$=&&OOO&#OXXXXXXXXoO=$7t72>o&&XXXX........",
"$$$$oOoOXXXX&OO&O&$O&&==XXXXXXo$XXXoO$OOXXXX$=*OXXXXXXXX.....XXX",
";$$$OO=&$XXX$&=O=&=&$$&oXXXX.o.XoXX.OOOOXXXX&&OoXXXXXXXX.....XXX",
"=$$;OO$OXXXX&&O=&&OO=&=oXXXXXXXX.XXoOOOOXXXo$OOOXXXXXXXX....XXXX",
"$=$$OO&$XXXXO$&O$O&OO&o$XXXX.oXXXX.o##OXXXXX&OOoXXXXXXXX...XXXXX",
"$=$oXXXXXX X$$O&$=&OXXX$OOOXXXXX.. ........XXXXXXXoXXXoXO#o*oo@o",
"$$$$XXXXXXXX===OO&$OXXXXOOOOXXXX.. .........XXXXXXXXXXXXOO=o&@&@",
"=$$$XXXXXXXXOO$===OOXXXXOOO$XXXX. . ........XXXX.XXXXXXXOOOOOO&O",
"o$+=XXoXXXXXOO&&OO&OXXXXO$OoXXXX. ..........XXXXXXXXXXXXO$$=$O*&",
"XXXXXXXX$O$OOX&&OOOOXXXXXXXX.............XXX&oOO$$&OOOO=77e651t1",
"XXXXXXXXO&OOO&&&$OOOXXXXXXXX............XXXX&*o&=$*oOO$;epep5tpp",
"XXXXX.o.OO=$$&&&&&OOXXXoXXXX............XXXXo&**oOo=O$O;epepepep",
"XXXXXoXX&$&&&&&&O$O$oXX.XXXX.........X..XXXX&o&$*>*=;>=>77e6e7e7",
"....XXXXXO&O&&&&XXXXXoXoOOOOX....XXXXXXX&o&&o&$=6eeeeee6;#O$o$=o",
"....XXXX=&=O&&&&XXXXXXXXO$OX....XXXXX.XXo&&&&&==eppppiiw$$O&&&&&",
"....XXXXOOO&&&&&o.XXXXXXOO=O....XXXXXXX &&&&&OO$6pepeewe$==$OO==",
".....XX.XOOOX&&XXXXXXXXXOOOOX...XXXXXXXXo&&&OO$=epdpepee$o==OOOO",
"........XXXXXXXXXXXX&&OOOOO=O$OOXXXX&&X&&O&o<e7whhkkseie$OOOXXXX",
"........XXXXXXXXXXXX&&&OOO=OOO&OXXXX&&&&OO&O7sesvvvkpiee$O&OXXXX",
"........XXXXXXXXXXXXX&OO=O=OOOOOXXXX&&&&=&$;eewikczkie52$=$=XXXX",
"........XXXXXXXXXXXX&&OOO=O=OOOXXXXXX&&X=$$;iissjkkgt751$==$XX.X",
"....XXXXXXXX&X&&&X&&&&&&OOOOX...XXXXXXXX<77ekzkjdssp;;;=$$OO. ..",
"....XXXXXXXX&&&&&&&O$=$$&OOO....XXXXXXXX6stskcckseee=&$&&=OOX.  ",
"....XXXXXXXX&&OO&&OO&&OO$&=O....XXXXXX X7pttkcckpep7=&O&&OOO. . ",
"....XXXXXXXXX&&&OX&+=&OOO&OXX...XXXXX&XXtssskkkjeee7$O=O=OXO. ..",
"XXXXXo@@&&&&O&$$&O&$$=&O...X....X  @&111jkkjtwtw;;$$=&OOX.X. ...",
"XXXX&o@o&X&&O$=&O&&&&OOO........    1wwwkccktwt1$#OOO==X   .....",
"XXXX&&@@&@X&==$$&$==O&&&  ...... XXX9uw9kcckttww$$&&=OOO........",
"XXXX&@&o&@*&==$$&&OOOX&X. ...... XX&9999jkkjttw1=;$=OOO$........",
"X&&X&&&&&$O;<te6$==oX .X..  ....X&X&wtwt;;;>O&*@&&&&..X......X.X",
"X&&&&&&&O=&=7tee==&o ..... .. ..&&&&ttw1;===&&&O&&&X. .......XXX",
"&&&&&&&&=O$;tse7==&&............o&&@7ttw=O&&&&&O&&&&.. .....XXXX",
"&&&&&&&&==$;77e6$$&o............$&&*7771=O&&&&O&&&&&X.  ....XXXX",
"&&&&>2wwee76**=oXXXX........o+o+2577;$=$=&=O&$$=&&&&XXXX....X&&&",
"&&&=f2wwswi7&o+&XXX... .....o+=o5ttt=$O&O&O=&&O&&&&&XXXX....&&&&",
"&o&>wuwwwis7*$$&XXXX........+*&O1tw7===&&&$O&O&OX&&&XXXX....&&&&",
"=&&>w9wuww72&&=$XXX...... ..Oo&&5ww1$=$=$&=&O=OOO&&XXXXX.X.XX&&X",
"ww1wepee:;=;$&&$............XXXX$==$$&&&$&OOOOOOXXXXXXXXoo&$OO&O",
"5twwpepe$$&&&=O&.. ..... ...XXXX=OOO=&$&&O=&OOO#XXXXXX.oO$&&OO&O",
"tttweppe;===OOOO..  ........XXXX&O=&&$&&&$OOO$OOXXXXXXXXO=O$&&O&",
"tttteppe;$&$O&O$..  ........XXXXOO=&&&=$&=OO&$OOoXXXX$XXO&=O$$&O",
"kkjjsepe=$$OXXXX.........XXX&&O&OO&O&&$&$==OXX$XXXXooOOO&=&&==O$",
"cczkpepe=&&OXXXX........XXXXX&O=OOO&$&$&&&OOX.XXXXX.#O&=O$=&&&&&",
"czzksepp;$$OXXX.........XXXX&OOO=$=O=O&OOOOOXXXXXXXoOO$$&$==&&$&",
"kjkge677$=oO.XXX. ......XXXXOOOO=;=$O=OO&OOOo.XXXXXXOOOO;=;;;>;;",
"eiiw$O$OXXX..... .......o&oO&OO*77e7$=&&&O&OXXXXXXXX&=;;7t7sjkkk",
"eeww=&$OXXXX...........X+*&>O&O*ttee$$=OOO$OXXXXXXXXO$=;tttskccc",
"ee55$&$&XXXX . . .  ....&OooOO;$7ts7$OO=OOOoXXXXXXXXOO$=7t7tkzcz",
"7e72$O=$XXXX   ...XX....**->=$$-7tt7$O=OOO$$XXXXXXXX$=$;tsssgkzk",
";;$$...X........o++oo+o=fjjft7e6=***=O&OoXXo.XXoX.Xo<e7pjkkjdsss",
";$$o............o+*+*$=>kccx5tew>&o*$&OOXXXXoXX.Xo.X7tesxkckseep",
"OO=O............o**o*o**kcxksttt;$o$&$OO.XXoXXXXXXXX7stsxcckdepe",
"oOOO............o*o*@*$=kcxkstt7$oOO&OOOoXX.XXXXXXXo7sttjcckseep"
};
