/* XPM */
static char *result[] = {
/* columns rows colors chars-per-pixel */
"64 57 216 2 ",
"   c #010101",
".  c #040709",
"X  c #06090B",
"o  c #0D0E0F",
"O  c #080606",
"+  c #110F0F",
"@  c #0A0F11",
"#  c #0B1519",
"$  c #111313",
"%  c #181717",
"&  c #121A1C",
"*  c #191C1D",
"=  c #19272A",
"-  c #1C2C33",
";  c #043138",
":  c #252323",
">  c #2C2A2A",
",  c #242C2D",
"<  c #2A3438",
"1  c #32393C",
"2  c #3C3D3D",
"3  c #353234",
"4  c #202F37",
"5  c #3A3E42",
"6  c #273C45",
"7  c #0B4A52",
"8  c #3B4649",
"9  c #3E494D",
"0  c #394447",
"q  c #314D59",
"w  c #295259",
"e  c #35515B",
"r  c #254D53",
"t  c #0A5B67",
"y  c #1B5A64",
"u  c #295964",
"i  c #3C5A65",
"p  c #146571",
"a  c #3F616E",
"s  c #3F6372",
"d  c #4A4A49",
"f  c #444849",
"g  c #585757",
"h  c #415056",
"j  c #435C64",
"k  c #47636B",
"l  c #56676D",
"z  c #416574",
"x  c #466B7C",
"c  c #486C75",
"v  c #536B74",
"b  c #5D727B",
"n  c #6D6D6D",
"m  c #626262",
"M  c #696F70",
"N  c #777878",
"B  c #64757B",
"V  c #297B93",
"C  c #3B7E88",
"Z  c #4C7788",
"A  c #5C7B88",
"S  c #667980",
"D  c #687B82",
"F  c #677F88",
"G  c #138291",
"H  c #198695",
"J  c #3A859C",
"K  c #3B8398",
"L  c #1E8FA0",
"P  c #1D91A0",
"I  c #329BAC",
"U  c #2292A2",
"Y  c #37A2B0",
"T  c #40889F",
"R  c #5C8496",
"E  c #79878B",
"W  c #6C8A95",
"Q  c #7B8B91",
"!  c #728B92",
"~  c #498EA3",
"^  c #4D93A9",
"/  c #4B91A6",
"(  c #5D91A6",
")  c #5296AB",
"_  c #5B9AAD",
"`  c #5597A8",
"'  c #5B9BB1",
"]  c #5699B1",
"[  c #619DAF",
"{  c #6896A6",
"}  c #669EB1",
"|  c #7396A2",
" . c #68A4B7",
".. c #75A3B5",
"X. c #75ABBC",
"o. c #7AAEBD",
"O. c #72A8B7",
"+. c #62B2BD",
"@. c #6CA7C2",
"#. c #6DABC5",
"$. c #6EAEC8",
"%. c #72ADC6",
"&. c #74AEC9",
"*. c #78AFC9",
"=. c #78AFC0",
"-. c #75B1C6",
";. c #7DB2C3",
":. c #74B1CA",
">. c #7BB3CC",
",. c #7FB8CC",
"<. c #75B6D0",
"1. c #7FB8D0",
"2. c #7BC5CE",
"3. c #76C2CB",
"4. c #8B8E8E",
"5. c #858889",
"6. c #908E8E",
"7. c #8B9193",
"8. c #929191",
"9. c #989594",
"0. c #859DA6",
"q. c #89A2AB",
"w. c #82B1BF",
"e. c #95B2BB",
"r. c #A9AEAF",
"t. c #82AFC0",
"y. c #83B4C3",
"u. c #8BB4C2",
"i. c #82B6CD",
"p. c #83B9CD",
"a. c #8ABBCF",
"s. c #89B7CB",
"d. c #95BCCA",
"f. c #98BECA",
"g. c #81B7D0",
"h. c #84BAD2",
"j. c #8ABCD1",
"k. c #93BFD3",
"l. c #AEBEC4",
"z. c #9CC2CC",
"x. c #8DC1D5",
"c. c #8EC4DA",
"v. c #94C3D6",
"b. c #9AC3D4",
"n. c #94C6DA",
"m. c #9CC5D9",
"M. c #96C9DC",
"N. c #9ACADC",
"B. c #98CFD7",
"V. c #A5C2CC",
"C. c #A4CBDB",
"Z. c #ABCEDC",
"A. c #A5C8D4",
"S. c #A4D4DC",
"D. c #AAD4DE",
"F. c #B3D2DE",
"G. c #BDD7DE",
"H. c #9DCDE1",
"J. c #94CCE1",
"K. c #9DD1E4",
"L. c #A0CFE2",
"P. c #A5D3E4",
"I. c #ABD4E4",
"U. c #AAD6E8",
"Y. c #ACD8E9",
"T. c #AED9E2",
"R. c #B6D7E2",
"E. c #B8D6E2",
"W. c #BAD9E5",
"Q. c #B3DDEC",
"!. c #BADDEB",
"~. c #B4DAE5",
"^. c #B6DFF0",
"/. c #BBE1EC",
"(. c #BBE3F2",
"). c #B6E0F1",
"_. c #C7C9CA",
"`. c #C6D6DB",
"'. c #D4D4D4",
"]. c #DBDBDB",
"[. c #C1DAE4",
"{. c #CADEE5",
"}. c #CADFE9",
"|. c #C6DFE9",
" X c #C5E3EB",
".X c #CCE2EB",
"XX c #C6E4E8",
"oX c #D4E5EB",
"OX c #DBE9EE",
"+X c #DBE4E6",
"@X c #C2E6F3",
"#X c #C4E9F6",
"$X c #CBECF6",
"%X c #C5EAF8",
"&X c #CCEEFA",
"*X c #C9E5F0",
"=X c #D5ECF3",
"-X c #D1EFFA",
";X c #DAEEF2",
":X c #CEF2FD",
">X c #D4F3FE",
",X c #DBF5FD",
"<X c #DCF9FF",
"1X c #E7E6E6",
"2X c #E6EEF1",
"3X c #E5F2F6",
"4X c #ECF3F6",
"5X c #E1F5FC",
"6X c #ECF6FA",
"7X c #E3FAFF",
"8X c #ECFBFF",
"9X c #F1F7FA",
"0X c #F3FBFD",
"qX c #FEFFFF",
"wX c #F1F0F0",
"eX c None",
/* pixels */
"eXeXeXeXeXeXeXeXeXeXeXeXeXeXeXeXeXeXeXeXeXeXeXeXeXeXeXeXeXeXeXeXeXeXeXeXeXeXeXeXeXeXeXeXeXeXeXeXeXeXeXeXeXeXeXeXeXeXeXeXeXeXeXeX",
"eXeXeXeXeXeXeXeXeXeXeXeXeXeXeXeXeXeXeXeXeXeXeXeXeXeXeXeXeXeXeXeXeXeXeXeXeXeXeXeXeXeXeXeXeXeXeXeXeXeXeXeXeXeXeXeXeXeXeXeXeXeXeXeX",
"eXeXeXeXeXeXeXeXeXeXeXeXeXeXeXeXeXeXeXeXeXeXeXeXeXeXeXeXeXeXeXeXeXeXeXeXeXeXeXeXeXeXeXeXeXeXeXeXeXeXeXeXeXeXeXeXeXeXeXeXeXeXeXeX",
"eXeXeXeXeXeXeXeXeXeXeXeXeXeXeXeXeXeXeXeXeXeXeXeXeXeXeXeXeXeXeXeXeXeXeXeXeXeXeXeXeXeXeXeXeXeXeXeXeXeXeXeXeXeXeXeXeXeXeXeXeXeXeXeX",
"eXeXeXeXeXeXeXeXeXeXeXeXeXeXeXeXeXeXeXeXeXeXeXeXeXeXeXeXeXeXeXeXeXeXeXeXeXeXeXeXeXeXeXeXeXeXeXeXeXeXeXeXeXeXeXeXeXeXeXeXeXeXeXeX",
"eXeXeXeXeXeXeXeXeXeXeXeXeXeXeXeXeXeXeXeXeXeXeXeXeXeXeXeXeXeXeXeXeXeXeXeXeXeXeXeXeXeXeXeXeXeXeXeXeXeXeXeXeXeXeXeXeXeXeXeXeXeXeXeX",
"eXeXeXeXeXeXeXeXeXeXeXeXeXeXeXeXeXeXeXeXeXeXeXeXeXeXeXeXeXeXeXeXeXeXeXeXeXeXeXeXeXeXeXeXeXeXeXeXeXeXeXeXeXeXeXeXeXeXeXeXeXeXeXeX",
"eXeXeXeXeXeXeXeXeXeXeXeXeXeXeXeXeXeXeXeXeXeXeXeXeXeXeXeXeXeXeXeXeXeXeXeXeXeXeXeXeXeXeXeXeXeXeXeXeXeXeXeXeXeXeXeXeXeXeXeXeXeXeXeX",
"eXeXeXeXeXeXeXeXeXeXeXeXeXeXeXeXeXeXeXeXeXeXeXeXeXeXeXeXeXeXeXeXeXeXeXeXeXeXeXeXeXeXeXeXeXeXeXeXeXeXeXeXeXeXeXeXeXeXeXeXeXeXeXeX",
"eXeXeXeXeXeXeXeXeXeXeXeXeXeXeXeX  . X X X X X X @ X X X X X X . X X X @ X X .   eXeXeXeXeXeXeXeXeXeXeXeXeXeXeXeXeXeXeXeXeXeXeXeX",
"eXeXeXeXeXeXeXeXeXeXeXeXeXeXeXeXX 6 z z z s s s s s s s s s s s s s s s z e #   eXeXeXeXeXeXeXeXeXeXeXeXeXeXeXeXeXeXeXeXeXeXeXeX",
"eXeXeXeXeXeXeXeXeXeXeXeXeXeXeX  X x &.<.:.:.:.:.:.:.:.:.:.:.:.-.:.$.:.$.<.( =   eXeXeXeXeXeXeXeXeXeXeXeXeXeXeXeXeXeXeXeXeXeXeXeX",
"eXeXeXeXeXeXeXeXeXeXeX          . x *.1.,.p.,.,.,.p.p.,.p.,.p.p.>.:.%.-.1.{ =             eXeXeXeXeXeXeXeXeXeXeXeXeXeXeXeXeXeXeX",
"eXeXeXeXeXeXeXeXeXeX  O < 9 8 0 e W >.n.M.M.B.m.M.M.M.m.N.N.N.B.x.:.%.&.c.u.l 0 8 9 5 $   eXeXeXeXeXeXeXeXeXeXeXeXeXeXeXeXeXeXeX",
"eXeXeXeXeXeXeXeXeX    = 0.W.F.F.Z.a.,.Q.$X#X#X#X#X#X#X#X%X(.#X%XY.,.@.-.P.(.W.F.F.W.V.9       eXeXeXeXeXeXeXeXeXeXeXeXeXeXeXeXeX",
"eXeXeXeXeXeXeXeX    1 E .X0X0X0X7XN.g.).<X,X7X7X8X8X8X8X8X8X8X0X*Xp.@.>.U.<X8X0X8X0X6Xr.g $     eXeXeXeXeXeXeXeXeXeXeXeXeXeXeXeX",
"eXeXeXeXeX    o X & W @X6X9X8X0X4Xm.g.Q.&X=X3X9X9X0X9X9X9X9X0X0X.Xs.@.-.P.$X6X9X0X9X9X0Xl.1 . @ .   eXeXeXeXeXeXeXeXeXeXeXeXeXeX",
"eXeXeXeXeX  & i x Z ..N.C.C.C.C.C.p.*.j.n.m.C.L.C.C.C.C.C.C.C.C.b.-.#.-.h.M.m.C.C.C.C.I.f.R x x 4   eXeXeXeXeXeXeXeXeXeXeXeXeXeX",
"eXeXeXeXeX  - ` <.$.#.#.$.#.#.#.#.%.%.%.#.#.@.#.#.#.#.#.#.#.#.#.#.#.#.-.#.#.#.#.%.@.#.#.%.%.<.@.q   eXeXeXeXeXeXeXeXeXeXeXeXeXeX",
"eXeXeXeXeX  - ( <.%.%.%.#.#.#.#.#.#.#.#.#.#.#.#.#.$.#.#.#.$.$.#.#.$.$.#.#.#.#.$.#.%.%.#.#.$.<.@.q   eXeXeXeXeXeXeXeXeXeXeXeXeXeX",
"eXeXeXeXeX  4 ..J.c.1.&.x.n.c.c.c.c.c.c.c.c.c.c.>.>.j.M.n.c.c.n.c.c.c.c.c.c.c.c.h.>.*.h.n.c.J.h.j   eXeXeXeXeXeXeXeXeXeXeXeXeXeX",
"eXeXeXeXeX  1 V.:X#XM.,.U.%X#X%X%X%X%X#X#X#X%X).j.h.).$X%X#X#X#X%X%X%X%X%X%X%X(.U.j.>.U.#X#X&X/.l   eXeXeXeXeXeXeXeXeXeXeXeXeXeX",
"eXeXeXeXeX  2 `.0X7XC.,.).<X8X8X8X8X8X0X8X0X0X,Xn.j.@X<X>X<X8X8X8X8X8X8X8X0X8X3X|.b.>.Q.<X8X0X3Xn     eXeXeXeXeXeXeXeXeXeXeXeXeX",
"eXeXeXeXeX  2 _.qX3XC.,.U.-X6X9X9X9X9X0X9X0X0X3Xb.p.Q.#X#X,X9X9X0X0X9X9X9X9X9X3X}.k.>.P.&X6XqX2XN @     eXeXeXeXeXeXeXeXeXeXeXeX",
"eXeXeXeX    < e.!.F.a.-.c.P.~.W.E.W.R.W.E.E.W.R.j.*.m.K.K.I.R.W.E.E.E.E.E.R.E.R.C.p.*.j.P.~.!.F.| q #   eXeXeXeXeXeXeXeXeXeXeXeX",
"eXeXeX  . & q ..x.p.-.-.>.1.p.a.a.j.a.p.h.j.j.j.*.&.1.g.1.g.p.a.a.a.j.j.j.a.p.i.,.*.%.>.g.g.j.p.X.Z -   eXeXeXeXeXeXeXeXeXeXeXeX",
"eXeXeX  @ s [ %.-.-.-.%.%.-.-.:.&.&.-.-.*.*.*.*.&.%.&.&.:.-.-.:.-.-.-.*.%.-.-.%.&.%.%.&.&.&.%.%.$.( -   eXeXeXeXeXeXeXeXeXeXeXeX",
"eXeXeX  & W P.M.n.M.n.M.M.n.n.M.n.,.&.n.m.n.J.n.n.M.M.M.n.M.n.M.x.:.#.%.j.M.M.M.M.M.v.,.>.c.N.M.K.t.1   eXeXeXeXeXeXeXeXeXeXeXeX",
"eXeXeX  * 0.:X:X$X$X$X$X$X%X$X&X#Xv.g.!.$X%X$X$X&X&X$X$X&X%X$X&XY.>.#.*.P.$X$X%X$X&X#Xj.g.).:X%X:XF.0   eXeXeXeXeXeXeXeXeXeXeXeX",
"eXeXeX  * q.<X7X8X8X8X8X8X8X8X0X5Xm.h.(.>X,X5X8X8X6X8X8X8X6X8X0X*X,.@.*.U.>X7X8X8X0X,Xm.h.(.:X:X7X`.f   eXeXeXeXeXeXeXeXeXeXeXeX",
"eXeXeX  * q.<XqXqXqXqXqXqXqXqXqX9XC.g.^.>X3X9XqXqXqXqXqXqXqXqXqX;Xp.@.*.U.>X0XqXqXqX0Xm.h.(.:X:X0X].d   eXeXeXeXeXeXeXeXeXeXeXeX",
"eXeXeX  * q.7X0XqXqXqXqXqXqXqXqX0XC.h.^.,X5X0XqXqXqXqXqXqXqXqXqXOXs.@.>.U.<X0XqXqXqX9XC.x.(.>X>X0X].d     eXeXeXeXeXeXeXeXeXeXeX",
"eXeXeX  & | )..X.X.XoX.XoX.X.XoX}.k.>.L.Q.!. X.XoX.X.X.X.X.X.XoXR.y.@.&.M.Q.|.oX.X=X|.i. .n.N.H.~.V.j #     eXeXeXeXeXeXeXeXeXeX",
"eXeX    & A h.p.p.i.i.i.i.p.p.p.i.*.&.,.i.i.i.i.g.i.p.p.p.i.i.p.>.&.%.%.>.,.g.i.g.1.>.] ~ / / / ` ~ K u @         eXeXeXeXeXeXeX",
"eXeX  1 S u.H.N.N.M.1.&.j.H.M.M.M.N.N.N.M.M.N.c.>.:.c.M.M.M.M.J.m.H.H.H.J.M.H.g.' ^ ] o.d.d.z.d._ J X.e.5.N n >     eXeXeXeXeXeX",
"eXeXO B @X&X&X&X-X$XM.g.Y.&X&X&X&X&X&X&X&X&X-X@Xk.h.).:X&X&X&X&X&X&X$X&X&X&X#Xv.~ J _ G.qX4X4X2Xu.[ `.qX0XqX1XM $     eXeXeXeXeX",
"eXeXX D >X8X8X8X8X5XC.g.Q.,X8X8X8X8X0X8X8X0X0X,Xn.h.(.>X:X5X8X0X8X0X0X8X0X=Xa.' J  .m.3X4XV.o.y.z.[.4XqXqXqXqX'.5.:   eXeXeXeXeX",
"eXeXX S &XqXqXqXqX0XZ.g.Q.,XqXqXqXqXqXqXqXqXqX9Xm.h.(.:X&X6XqXqXqXqXqXqXqX2X .V J p.:XqXoX[ H J A.qXqXqXqXqXqXqX'.2   eXeXeXeXeX",
"eXeXO B -X0XqXqXqX0XZ.1.Q.,XqXqXqXqXqXqXqXqXqX9Xm.h.(.:X-X8XqXqXqXqXqXqXqXOX} V J ,.-XqXoX_ V J z.qXqXqXqXqXqXqX'.2         eXeX",
"eXeXX v I. X}.}.XX|.k.&.n.Q.|.}.}..X.X}..X.X.X[.a.>.H.U.U.!.}.}.}.}.}.XX`.Z.;.O.X.D.=X.XA.u.o.w..XqXXXS.D.D.T.6X1X5.g d :   eXeX",
"eXeXO i >.h.i.i.i.,.>.*.>.>.i.i.i.i.g.i.g.g.i.i.*.&.>.>.,.i.g.i.p.i.i.*.' ' P.#X$X6X3Xw. .{.9XwXqX;X+.P U H I S.qXwX1X_.m O eXeX",
"eXeXX v N.P.H.H.H.H.H.H.L.H.H.H.J.,.&.n.H.H.H.H.H.P.L.H.H.H.H.H.H.H.H.m.] ^ Y.<X<XqX4XO._ OXqXqXXXo.K y y y y ` B.6XqX].n O eXeX",
"eXeXX D %X>X$X-X:X&X&X:X&X:X&X>X$Xv.g.).:X&X&X&X&X&X:X:X&X&X&X&X:X&X>X#XX.) U.>X,X0X4XX.[ +XqX9X3.H e 5 3 3 < p Y XXqX'.n X eXeX",
"eXeXX B &X5X5X5X,X5X5X<X5X5X5X7X=Xm.g.).>X-X,X5X5X5X5X,X5X5X5X5X5X5X7X=XX.) P.>X,X0X4XX.[ +XqX9X3.G w 3 > : , t I XXqX'.n O eXeX",
"eXeXX S >X8X0X0X0X0X8X0X0X0X0X0X6XC.j.).<X,X6X0X0X0X0X8X0X0X0X8X0X0XqX5Xo.] U.>X7XqX6Xo.[ OXqXqX3.G w 3 : % = t Y *XqX].n O eXeX",
"eXeXX S &X0XqXqXqXqXqXqXqXqXqXqX0XC.g.^.>X,X8XqXqXqXqXqXqXqXqXqXqXqXqX6Xw.) P.<X<X0X4XX.[ OXqX0X3.H r > % + * t Y XXqX].n O eXeX",
"eXeX  8 ! 8.8.8.8.8.8.8.8.8.8.9.4.b c F Q Q 4.8.8.8.8.8.8.8.8.8.8.8.9.4.k u B Q Q 8.5.k i E 8.4.c 7 = $ X O @ ; y E 6.N 2   eXeX",
"eXeX  O o o o $ $ o o + o @ o + o X X o o o o o $ o + o o o $ $ @ o o o X X o o o o o X . @ + o X . .         . . X o o O   eXeX",
"eXeXeXeXeXeXeXeXeXeXeXeXeXeXeXeXeXeXeXeXeXeXeXeXeXeXeXeXeXeXeXeXeXeXeXeXeXeXeXeXeXeXeXeXeXeXeXeXeXeXeXeXeXeXeXeXeXeXeXeXeXeXeXeX",
"eXeXeXeXeXeXeXeXeXeXeXeXeXeXeXeXeXeXeXeXeXeXeXeXeXeXeXeXeXeXeXeXeXeXeXeXeXeXeXeXeXeXeXeXeXeXeXeXeXeXeXeXeXeXeXeXeXeXeXeXeXeXeXeX",
"eXeXeXeXeXeXeXeXeXeXeXeXeXeXeXeXeXeXeXeXeXeXeXeXeXeXeXeXeXeXeXeXeXeXeXeXeXeXeXeXeXeXeXeXeXeXeXeXeXeXeXeXeXeXeXeXeXeXeXeXeXeXeXeX",
"eXeXeXeXeXeXeXeXeXeXeXeXeXeXeXeXeXeXeXeXeXeXeXeXeXeXeXeXeXeXeXeXeXeXeXeXeXeXeXeXeXeXeXeXeXeXeXeXeXeXeXeXeXeXeXeXeXeXeXeXeXeXeXeX",
"eXeXeXeXeXeXeXeXeXeXeXeXeXeXeXeXeXeXeXeXeXeXeXeXeXeXeXeXeXeXeXeXeXeXeXeXeXeXeXeXeXeXeXeXeXeXeXeXeXeXeXeXeXeXeXeXeXeXeXeXeXeXeXeX",
"eXeXeXeXeXeXeXeXeXeXeXeXeXeXeXeXeXeXeXeXeXeXeXeXeXeXeXeXeXeXeXeXeXeXeXeXeXeXeXeXeXeXeXeXeXeXeXeXeXeXeXeXeXeXeXeXeXeXeXeXeXeXeXeX",
"eXeXeXeXeXeXeXeXeXeXeXeXeXeXeXeXeXeXeXeXeXeXeXeXeXeXeXeXeXeXeXeXeXeXeXeXeXeXeXeXeXeXeXeXeXeXeXeXeXeXeXeXeXeXeXeXeXeXeXeXeXeXeXeX",
"eXeXeXeXeXeXeXeXeXeXeXeXeXeXeXeXeXeXeXeXeXeXeXeXeXeXeXeXeXeXeXeXeXeXeXeXeXeXeXeXeXeXeXeXeXeXeXeXeXeXeXeXeXeXeXeXeXeXeXeXeXeXeXeX",
"eXeXeXeXeXeXeXeXeXeXeXeXeXeXeXeXeXeXeXeXeXeXeXeXeXeXeXeXeXeXeXeXeXeXeXeXeXeXeXeXeXeXeXeXeXeXeXeXeXeXeXeXeXeXeXeXeXeXeXeXeXeXeXeX"
};
