/* XPM */
static char *result[] = {
/* columns rows colors chars-per-pixel */
"64 64 67 1 ",
"  c black",
". c #010101",
"X c gray3",
"o c #101010",
"O c #181818",
"+ c #320000",
"@ c #341E02",
"# c #202020",
"$ c #383636",
"% c #410000",
"& c #5F0000",
"* c #6E0000",
"= c #7D0000",
"- c #432702",
"; c #442702",
": c #522F03",
"> c #613703",
", c #703F04",
"< c #7F4704",
"1 c #504B4B",
"2 c #585252",
"3 c #605959",
"4 c #686060",
"5 c #706767",
"6 c #786E6E",
"7 c #8C0000",
"8 c #8C0606",
"9 c #9B0000",
"0 c #AA0000",
"q c #B90000",
"w c #C80000",
"e c #D70000",
"r c #804704",
"t c #8E4F05",
"y c #8F4F05",
"u c #9D5706",
"i c #AC5F07",
"p c #BC6308",
"a c #BB6708",
"s c #BC6708",
"d c #CA6F09",
"f c #CB6F09",
"g c #DA730A",
"h c #D9770A",
"j c #DA770A",
"k c #E87F0B",
"l c #E97F0B",
"z c #807575",
"x c #F4870F",
"c c #F28B0F",
"v c #F58E1E",
"b c orange",
"n c #F6932D",
"m c #F79C3C",
"M c #F8A34B",
"N c #F7AE5A",
"B c #FABA78",
"V c #D3BEBE",
"C c #D9C7C7",
"Z c #DFD0D0",
"A c #E5D9D9",
"S c #EBE2E2",
"D c #F1EBEB",
"F c #F7F4F4",
"G c #FDFDFD",
"H c white",
"J c None",
/* pixels */
"JJJJJJJJJJJJJJJJJJJJJJJJJJJJwqJJJJJJe0=eJJJJJJJJJJJJJJJJJJJJJJJJ",
"JJJJJJJJJJJJJJJJJJJJJJJJJJJJ09weJJJeq7eJJJJJJJJJJJJJJJJJJJJJJJJJ",
"JJJJJJJJJJJJJJJJJJJJJJJJJJJJJw0*eJq9wJJJJJJJJJJJJJJJJJJJJJJJJJJJ",
"JJJJJJJJJJJJJJJJJJJJJJJJJJJJJJw0%+9eeJJJJJJJJJJJJJJJJJJJJJJJJJJJ",
"JJJJJJJJJJJJJJJJJJJJJJJJJJJJJJJ79weJJJJJJJJJJJJJJJJJJJJJJJJJJJJJ",
"JJJJJJJJJJJJJJJJJJJJJJJJJJJ            JJJJJJJJJJJJJJJJJJJJJJJJJ",
"JJJJJJJJJJJJJJJJJJJJJJJJ.                  JJJJJJJJJJJJJJJJJJJJJ",
"JJJJJJJJJJJJJJJJJJJJJJe0ee                  JJJJJJJJJJJJJJJJJJJJ",
"JJJJJJJJJJJJJJJJJJJJJe70q0qee            e9qJJJJJJJJJJJJJJJJJJJJ",
"JJJJJJJJJJJJJJJJJJJJ.e97qwq0q0wqwe     &ww90 JJJJJJJJJJJJJJJJJJJ",
"JJJJJJJJJJJJJJJJJJJJ    qq7qw0ww9999qq9990w  JJJJJJJJJJJJJJJJJJJ",
"JJJJJJJJJJJJJJJJJJJJ         0&+0qq00qwqww    JJJJJJJJJJJJJJJJJJ",
"JJJJJJJJJJJJJJJJJJJ     FFFFF        FFFFF    JJJJJJJJJJJJJJJJJJ",
"JJJJJJJJJJJJJJJJJJJ    FFFFFFFF    FFFFFFFF    JJJJJJJJJJJJJJJJJ",
"JJJJJJJJJJJJJJJJJJJ    FFFFFFFF    FFFFFFFF    JJJJJJJJJJJJJJJJJ",
"JJJJJJJJJJJJJJJJJJ    FFF   FFF    FFF   FFF   JJJJJJJJJJJJJJJJJ",
"JJJJJJJJJJJJJJJJJJ    FFF F FFF    FFF F FFF    JJJJJJJJJJJJJJJJ",
"JJJJJJJJJJJJJJJJJJ    FFF   FFF    FFF   FFF    JJJJJJJJJJJJJJJJ",
"JJJJJJJJJJJJJJJJJJ    FFF   FFF    FFF   FFF    JJJJJJJJJJJJJJJJ",
"JJJJJJJJJJJJJJJJJJ    FFFFFFFFFFFFFFFFFFFFFF    JJJJJJJJJJJJJJJJ",
"JJJJJJJJJJJJJJJJJ     FFFFFFFFFbbbbFFFFFFFFF X    JJJJJJJJJJJJJJ",
"JJJJJJJJJJJJJJJJJ     FFFFFFFFFbbbbFFFFFFFFF  X O  JJJJJJJJJJJJJ",
"JJJJJJJJJJJJJJJJ    O  FSFFFFFbb88bbFFFFFFF   X X   JJJJJJJJJJJJ",
"JJJJJJJJJJJJJJJ   #XO    SFFFFbb88bbFFFFF      OXX  JJJJJJJJJJJJ",
"JJJJJJJJJJJJJJJ   OXX    FFFFFbb88bbFFFFF      O X   JJJJJJJJJJJ",
"JJJJJJJJJJJJJ     oo    FFFFFFbbbbbFFFFFFF     XXX     JJJJJJJJJ",
"JJJJJJJJJJJ       XX    SFFFFFHbbbbHHHHHHF     XXX      JJJJJJJJ",
"JJJJJJJJJJJ       OO   FSFFHHHHHbbHHHHHHHFF    X #       JJJJJJJ",
"JJJJJJJJJJ    z4  O   FDDFHHHHHHHHHHHHHHHHFF   X XX zz    JJJJJJ",
"JJJJJJJJJ    45z  X   FAFFHHHHHHHHHHHHHHHHFF   o Xo z23    JJJJJ",
"JJJJJJJJJ   z14z     FSFFGHHHHHHHHHHHHHHHHFFF  o  o zz4z   JJJJJ",
"JJJJJJJJ   z4z6z    FFZFFHHHHHHHHHHHHHHHHHHFFF    o zz64z   JJJJ",
"JJJJJJJJ   646z     FDDFFHHHHHHHHHHHHHHHHHHFSF    XX zz2z   JJJJ",
"JJJJJJJ   z565z    FFZFDHHHHHHHHHHHHHHHHHHHHSDF    XXzz55z   JJJ",
"JJJJJJJ   556zz    FAFDFHHHHHHHHHHHHHHHHHHHHFCF      zzz4z   JJJ",
"JJJJJJ   64z6z     FCFDFHHHHHHHHHHHHHHHHHHHGFAF       zzz2z   JJ",
"JJJJJJ   565zz    FSDSDFHHHHHHHHHHHHHHHHHHHGFSFF      zzz64   JJ",
"JJJJJ   656zzz    FSFSFFHHHHHHHHHHHHHHHHHHGHFSFF      zzz64z   J",
"JJJJ   6566zz     FSFAFGHHHHHHHHHHHHHHHHHHHFFSFF    JJ zzz46z   ",
"JJJJ   564zzz     FSFSFHHHHHHHHHHHHHHHHHHHGFFAFF    JJJzzzz4z   ",
"JJJJ   64zzz JJ   FDFZFHHHHHHHHHHHHHHHHHHHGFFSFF    JJJ zzz54   ",
"JJJ   z55zzzJJJ   FSSFFHHHHHHHHHHHHHHHHHHHGFFAFF    JJJJzzzz56  ",
"JJJ   54zzzzJJJ   DSAFFFHHHHHHHHHHHHHHHHHGFFVFFF    JJJJzzzz64  ",
"JJJ   55zzJJJJJ    FAFFFHHHHHHHHHHHHHHHHHFFFSFF     JJJJJJzzz3  ",
"JJJ  56zzzJJJJJJ   FAFFFHHHHHHHHHHHHHHHHGFFFAFF     JJJJJJzzz65 ",
"JJJ  65zzJJJJJJJ   DSFDFHHHHHHHHHHHHHHHHFFFFDFF     JJJJJJJzz56 ",
"JJJ $6zzJJJJJJJJJ  SZFDFHHHHHHHHHHHHHHHGFFFDDFF    JJJJJJJJJzz64",
"JJJ 46zzJJJJJJJJJ  SSFSFFHHHHHHHHHHHHHHFFFFDFFF    JJJJJJJJJzz64",
"JJJJz6JJJJJJJJJJJ  JZFFDFDHHHHHHHHHHHHFFFFFDFF     JJJJJJJJJJJz3",
"JJJJJJJJJJJJJJJJJJ JVDFSFDDHHHHHHHHHFFFFFFDDFF    JJJJJJJJJJJJJJ",
"JJJJJJJJJJJJJJJJJJ  DSSFDFDDDFFFFFFFFFFFFFDFFF    JJJJJJJJJJJJJJ",
"JJJJJJJJJJJJJJJJJJJ  DFDZSSFFDDSFFFFFFFFFDDFF    JJJJJJJJJJJJJJJ",
"JJJJJJJJJJJJJJJJJJJJ JFFFSDSFFFFDDDDSFFFFSFF    JJJJJJJJJJJJJJJJ",
"JJJJJJJJJJJJJJJJJJJJ  FFFDAFSSDFFFFFFDDFDFFF    JJJJJJJJJJJJJJJJ",
"JJJJJJJJJJJJJJJJJJJJJaaaFFFDFFDDDSFFFFFDSFFaaaaJJJJJJJJJJJJJJJJJ",
"JJJJJJJJJJJJJJJJJJJJaatauaaFFFFFFFDSSDSJJaa,siaaJJJJJJJJJJJJJJJJ",
"JJJJJJJJJJJJJJJJJJJanriisaaJJJJJJJJJJJJJJaksi:uiaJJJJJJJJJJJJJJJ",
"JJJJJJJJJJJJJJJJaaa;yiadd<fJJJJJJJJJJJJJJd-lutauuiaaJJJJJJJJJJJJ",
"JJJJJJJJJJJJJJJaakxrkauaaukJJJJJJJJJJJJJJadij<NutcaaaJJJJJJJJJJJ",
"JJJJJJJJJJJJJJJaddaad<idjBaJJJJJJJJJJJJJJadtkpuagudkaJJJJJJJJJJJ",
"JJJJJJJJJJJJJJJJJJJaMuavraaJJJJJJJJJJJJJJadthaBMaJJJJJJJJJJJJJJJ",
"JJJJJJJJJJJJJJJJJJaaaaah@aJJJJJJJJJJJJJJJJa>maakaaJJJJJJJJJJJJJJ",
"JJJJJJJJJJJJJJJJJJJJJJaddaJJJJJJJJJJJJJJJJaavaJJJJJJJJJJJJJJJJJJ",
"JJJJJJJJJJJJJJJJJJJJJJJJaJJJJJJJJJJJJJJJJJJaJJJJJJJJJJJJJJJJJJJJ"
};
