/* XPM */
static char *result[] = {
/* columns rows colors chars-per-pixel */
"64 64 59 1 ",
"  c black",
". c #010101",
"X c #070707",
"o c gray3",
"O c #090909",
"+ c gray6",
"@ c #111111",
"# c gray9",
"$ c #191919",
"% c gray12",
"& c #3C2500",
"* c gray13",
"= c #272727",
"- c gray16",
"; c #2F2F2F",
": c #313131",
"> c #373737",
", c #393939",
"< c #3F3F3F",
"1 c #6E0000",
"2 c #4B2E00",
"3 c #694100",
"4 c #414141",
"5 c #494949",
"6 c DimGray",
"7 c #8C0000",
"8 c #9B0000",
"9 c #AA0000",
"0 c #B90000",
"q c #C80000",
"w c #D70000",
"e c #875500",
"r c #965F00",
"t c #A56900",
"y c #B47300",
"u c #C37D00",
"i c #9D6D6D",
"p c #D28700",
"a c #E19100",
"s c #F09B00",
"d c orange",
"f c #FFAF1E",
"g c #FFB42D",
"h c #AF8888",
"j c #B59191",
"k c #BB9A9A",
"l c #C1A3A3",
"z c #C7ACAC",
"x c #CDB5B5",
"c c #D3BEBE",
"v c #D9C7C7",
"b c #DFD0D0",
"n c #E5D9D9",
"m c #EBE2E2",
"M c #F1EBEB",
"N c #F7F4F4",
"B c #FDFDFD",
"V c white",
"C c None",
/* pixels */
"CCCCCCCCCCCCCCCCCCCCCCCCCCwwC0wCCCCCCCCCCCCCCCCCCCCCCCCCCCCCCCCC",
"CCCCCCCCCCCCCCCCCCCCCCCCCC99C0wCCCCCCCCCCCCCCCCCCCCCCCCCCCCCCCCC",
"CCCCCCCCCCCCCCCCCCCCCCCCCCq9w9wCCCCCCCCCCCCCCCCCCCCCCCCCCCCCCCCC",
"CCCCCCCCCCCCCCCCCCCCCCCCCCw9w0wCCCCCCCCCCCCCCCCCCCCCCCCCCCCCCCCC",
"CCCCCCCCCCCCCCCCCCCCCCCCCCC0q9wC..........CCCCCCCCCCCCCCCCCCCCCC",
"CCCCCCCCCCCCCCCCCCCCCCCCCCCw08q............CCCCCCCCCCCCCCCCCCCCC",
"CCCCCCCCCCCCCCCCCCCCCCCCCCCC9wqw0qwwwwwqqqqwCCCCCCCCCCCCCCCCCCCC",
"CCCCCCCCCCCCCCCCCCCCCCCCCCC.q810q0078880809qMCCCCCCCCCCCCCCCCCCC",
"CCCCCCCCCCCCCCCCCCCCCCCCCC..q9ww........NNNNNNCCCCCCCCCCCCCCCCCC",
"CCCCCCCCCCCCCCCCCCCCCCCCC............-.NN...NNCCCCCCCCCCCCCCCCCC",
"CCCCCCCCCCCCCCCCCCCCCCCCC..........@5NbMN.N.NNCCCCCCCCCCCCCCCCCC",
"CCCCCCCCCCCCCCCCCCCCCCCC..........$,vjNNN.N.NNCCCCCCCCCCCCCCCCCC",
"CCCCCCCCCCCCCCCCCCCCCCCC..........*bNvNNN...NNCCCCCCCCCCCCCCCCCC",
"CCCCCCCCCCCCCCCCCCCCCCCC.........OVbcmNNN...NNddCCCCCCCCCCCCCCCC",
"CCCCCCCCCCCCCCCCCCCCCCC..........-nNnNNNNNNNddfgdCCCCCCCCCCCCCCC",
"CCCCCCCCCCCCCCCCCCCCCCC..........VxcMNNNNNNdddddgfdCCCCCCCCCCCCC",
"CCCCCCCCCCCCCCCCCCCCCCC.........@VxnNNNNNNdddddsapddCCCCCCCCCCCC",
"CCCCCCCCCCCCCCCCCCCCCCC.........*NkNNNNNNNNNutupprCCCCCCCCCCCCCC",
"CCCCCCCCCCCCCCCCCCCCCCC.........:vhNNNNNNNNNNaaaCCCCCCCCCCCCCCCC",
"CCCCCCCCCCCCCCCCCCCCCCC........OVmcNNNNNNNNNNNNCCCCCCCCCCCCCCCCC",
"CCCCCCCCCCCCCCCCCCCCCCC........*NbcNNNNNNNNNNNNCCCCCCCCCCCCCCCCC",
"CCCCCCCCCCCCCCCCCCCCCCC........:NbbmNNNNNNNNNNCCCCCCCCCCCCCCCCCC",
"CCCCCCCCCCCCCCCCCCCCCC........ -NbnvNNNNNNNNNNCCCCCCCCCCCCCCCCCC",
"CCCCCCCCCCCCCCCCCCCCCC......   . bbcMNNNNNNNNNCCCCCCCCCCCCCCCCCC",
"CCCCCCCCCCCCCCCCCCCCC.......     +<mnNNNNNNNNNCCCCCCCCCCCCCCCCCC",
"CCCCCCCCCCCCCCCCCCCC........   X  ;>bNNNNNNNNNCCCCCCCCCCCCCCCCCC",
"CCCCCCCCCCCCCCCCCCCC....... +     #=<MNNNNNNNNCCCCCCCCCCCCCCCCCC",
"CCCCCCCCCCCCCCCCCCC......    +   X+#;<<NNNNNNNNCCCCCCCCCCCCCCCCC",
"CCCCCCCCCCCCCCCCCCC......      +X+X #><<NNNNNNNCCCCCCCCCCCCCCCCC",
"CCCCCCCCCCCCCCCCCCC......  =#  %+#+  #;<NNNNNNNCCCCCCCCCCCCCCCCC",
"CCCCCCCCCCCCCCCCCCC.......  =X  #+%+  #><NNNNNNNCCCCCCCCCCCCCCCC",
"CCCCCCCCCCCCCCCCCCC........ ;<X X+ X+  %<NNNNNNNCCCCCCCCCCCCCCCC",
"CCCCCCCCCCCCCCCCCCC........  ;;  # X=  X;<NNNNNNNCCCCCCCCCCCCCCC",
"CCCCCCCCCCCCCCCCCC.......... =>X  +X%+  #>NNNNNNNNCCCCCCCCCCCCCC",
"CCCCCCCCCCCCCCCCCC........... %+  X++=  #=NNNNNNNNNCCCCCCCCCCCCC",
"CCCCCCCCCCCCCCCCCC........... ##  X  #  +#>NNNNNNNNCCCCCCCCCCCCC",
"CCCCCCCCCCCCCCCCCC............;#+    X++X#;NNNNNNNNNCCCCCCCCCCCC",
"CCCCCCCCCCCCCCCCCC.............=+X    +  #=NNNNNNNNNCCCCCCCCCCCC",
"CCCCCCCCCCCCCCCCCC............. %+   XX XX%NNNNNNNNNCCCCCCCCCCCC",
"CCCCCCCCCCCCCCCCCC............. ;+     +X XNNNNNNNNNCCCCCCCCCCCC",
"CCCCCCCCCCCCCCCCCC.............. % X   X   <NNNNNNNNNCCCCCCCCCCC",
"CCCCCCCCCCCCCCCCC.................  +   X  >NNNNNNNNNCCCCCCCCCCC",
"CCCCCCCCCCCCCCCCC................O#     X  ;NNNNNNNNNCCCCCCCCCCC",
"CCCCCCCCCCCCCCCCC...............@.o%+   X  <NNNNNNNNNCCCCCCCCCCC",
"CCCCCCCCCCCCCCCCC..............O. N<;   %  %NNNNNNNNNCCCCCCCCCCC",
"CCCCCCCCCCCCCCCCC..............O. Bz>=#+= X%NNNNNNNNNCCCCCCCCCCC",
"CCCCCCCCCCCCCCCCC..............O BMcM;=<;=>>NNNNNNNNNCCCCCCCCCCC",
"CCCCCCCCCCCCCCCCC.............@.BNlNnM><;;<NNNNNNNNNCCCCCCCCCCCC",
"CCCCCCCCCCCCCCCCC.............4-NbzNmNNNNNNNNNNNNmzMCCCCCCCCCCCC",
"CCCCCCCCCCCCCCCCCC............6NMvnMMNNNNNNNNNNcmMnzdddCCCCCCCCC",
"CCCCCCCCCCCCCCCCCC............5NvcMmNNNNNNNNNncNMnsaddddCCCCCCCC",
"CCCCCCCCCCCCCCCCCC............*NxcmMNNNMMmMMMNNdddtaeaaCCCCCCCCC",
"CCCCCCCCCCCCCCCCCCC...........*NzclNMmMNNNNMny2aadsdpddCCCCCCCCC",
"CCCCCCCCCCCCCCCCCCCC..........6NMNinbbmbpsddd3 &yaapCCCCCCCCCCCC",
"CCCCCCCCCCCCCCCCCCCCCC.........dNlmxddesddsardsrCCCCCCCCCCCCCCCC",
"CCCCCCCCCCCCCCCCCCCCCCCCCCCCCCCCduarpsssassdauddCCCCCCCCCCCCCCCC",
"CCCCCCCCCCCCCCCCCCCCCCCCCCCCCCCCCCdsspasssdsdsptCCCCCCCCCCCCCCCC",
"CCCCCCCCCCCCCCCCCCCCCCCCCCCCCCCCCCCddddrdsysspddCCCCCCCCCCCCCCCC",
"CCCCCCCCCCCCCCCCCCCCCCCCCCCCCCCCCCCCCCdddddaddCCCCCCCCCCCCCCCCCC",
"CCCCCCCCCCCCCCCCCCCCCCCCCCCCCCCCCCCCCCCCCCCCCCCCCCCCCCCCCCCCCCCC",
"CCCCCCCCCCCCCCCCCCCCCCCCCCCCCCCCCCCCCCCCCCCCCCCCCCCCCCCCCCCCCCCC",
"CCCCCCCCCCCCCCCCCCCCCCCCCCCCCCCCCCCCCCCCCCCCCCCCCCCCCCCCCCCCCCCC",
"CCCCCCCCCCCCCCCCCCCCCCCCCCCCCCCCCCCCCCCCCCCCCCCCCCCCCCCCCCCCCCCC",
"CCCCCCCCCCCCCCCCCCCCCCCCCCCCCCCCCCCCCCCCCCCCCCCCCCCCCCCCCCCCCCCC"
};
