/* XPM */
static char *result[] = {
/* columns rows colors chars-per-pixel */
"64 64 59 1 ",
"  c black",
". c #010101",
"X c #070707",
"o c gray3",
"O c #090909",
"+ c gray6",
"@ c #111111",
"# c gray9",
"$ c #191919",
"% c gray12",
"& c #3C2500",
"* c gray13",
"= c #272727",
"- c gray16",
"; c #2F2F2F",
": c #313131",
"> c #373737",
", c #393939",
"< c #3F3F3F",
"1 c #6E0000",
"2 c #4B2E00",
"3 c #694100",
"4 c #414141",
"5 c #494949",
"6 c DimGray",
"7 c #8C0000",
"8 c #9B0000",
"9 c #AA0000",
"0 c #B90000",
"q c #C80000",
"w c #D70000",
"e c #875500",
"r c #965F00",
"t c #A56900",
"y c #B47300",
"u c #C37D00",
"i c #9D6D6D",
"p c #D28700",
"a c #E19100",
"s c #F09B00",
"d c orange",
"f c #FFAF1E",
"g c #FFB42D",
"h c #AF8888",
"j c #B59191",
"k c #BB9A9A",
"l c #C1A3A3",
"z c #C7ACAC",
"x c #CDB5B5",
"c c #D3BEBE",
"v c #D9C7C7",
"b c #DFD0D0",
"n c #E5D9D9",
"m c #EBE2E2",
"M c #F1EBEB",
"N c #F7F4F4",
"B c #FDFDFD",
"V c white",
"C c None",
/* pixels */
"CCCCCCCCCCCCCCCCCCCCCCCCCCCCCCCCCw0CwwCCCCCCCCCCCCCCCCCCCCCCCCCC",
"CCCCCCCCCCCCCCCCCCCCCCCCCCCCCCCCCw0C99CCCCCCCCCCCCCCCCCCCCCCCCCC",
"CCCCCCCCCCCCCCCCCCCCCCCCCCCCCCCCCw9w9qCCCCCCCCCCCCCCCCCCCCCCCCCC",
"CCCCCCCCCCCCCCCCCCCCCCCCCCCCCCCCCw0w9wCCCCCCCCCCCCCCCCCCCCCCCCCC",
"CCCCCCCCCCCCCCCCCCCCCC..........Cw9q0CCCCCCCCCCCCCCCCCCCCCCCCCCC",
"CCCCCCCCCCCCCCCCCCCCC............q80wCCCCCCCCCCCCCCCCCCCCCCCCCCC",
"CCCCCCCCCCCCCCCCCCCCwqqqqwwwwwq0wqw9CCCCCCCCCCCCCCCCCCCCCCCCCCCC",
"CCCCCCCCCCCCCCCCCCCMq9080888700q018q.CCCCCCCCCCCCCCCCCCCCCCCCCCC",
"CCCCCCCCCCCCCCCCCCNNNNNN........ww9q..CCCCCCCCCCCCCCCCCCCCCCCCCC",
"CCCCCCCCCCCCCCCCCCNN...NN.-............CCCCCCCCCCCCCCCCCCCCCCCCC",
"CCCCCCCCCCCCCCCCCCNN.N.NMbN5@..........CCCCCCCCCCCCCCCCCCCCCCCCC",
"CCCCCCCCCCCCCCCCCCNN.N.NNNjv,$..........CCCCCCCCCCCCCCCCCCCCCCCC",
"CCCCCCCCCCCCCCCCCCNN...NNNvNb*..........CCCCCCCCCCCCCCCCCCCCCCCC",
"CCCCCCCCCCCCCCCCddNN...NNNmcbVO.........CCCCCCCCCCCCCCCCCCCCCCCC",
"CCCCCCCCCCCCCCCdgfddNNNNNNNnNn-..........CCCCCCCCCCCCCCCCCCCCCCC",
"CCCCCCCCCCCCCdfgdddddNNNNNNMcxV..........CCCCCCCCCCCCCCCCCCCCCCC",
"CCCCCCCCCCCCddpasdddddNNNNNNnxV@.........CCCCCCCCCCCCCCCCCCCCCCC",
"CCCCCCCCCCCCCCrpputuNNNNNNNNNkN*.........CCCCCCCCCCCCCCCCCCCCCCC",
"CCCCCCCCCCCCCCCCaaaNNNNNNNNNNhv:.........CCCCCCCCCCCCCCCCCCCCCCC",
"CCCCCCCCCCCCCCCCCNNNNNNNNNNNNcmVO........CCCCCCCCCCCCCCCCCCCCCCC",
"CCCCCCCCCCCCCCCCCNNNNNNNNNNNNcbN*........CCCCCCCCCCCCCCCCCCCCCCC",
"CCCCCCCCCCCCCCCCCCNNNNNNNNNNmbbN:........CCCCCCCCCCCCCCCCCCCCCCC",
"CCCCCCCCCCCCCCCCCCNNNNNNNNNNvnbN- ........CCCCCCCCCCCCCCCCCCCCCC",
"CCCCCCCCCCCCCCCCCCNNNNNNNNNMcbb .   ......CCCCCCCCCCCCCCCCCCCCCC",
"CCCCCCCCCCCCCCCCCCNNNNNNNNNnm<+     .......CCCCCCCCCCCCCCCCCCCCC",
"CCCCCCCCCCCCCCCCCCNNNNNNNNNb>;  X   ........CCCCCCCCCCCCCCCCCCCC",
"CCCCCCCCCCCCCCCCCCNNNNNNNNM<=#     + .......CCCCCCCCCCCCCCCCCCCC",
"CCCCCCCCCCCCCCCCCNNNNNNNN<<;#+X   +    ......CCCCCCCCCCCCCCCCCCC",
"CCCCCCCCCCCCCCCCCNNNNNNN<<># X+X+      ......CCCCCCCCCCCCCCCCCCC",
"CCCCCCCCCCCCCCCCCNNNNNNN<;#  +#+%  #=  ......CCCCCCCCCCCCCCCCCCC",
"CCCCCCCCCCCCCCCCNNNNNNN<>#  +%+#  X=  .......CCCCCCCCCCCCCCCCCCC",
"CCCCCCCCCCCCCCCCNNNNNNN<%  +X +X X<; ........CCCCCCCCCCCCCCCCCCC",
"CCCCCCCCCCCCCCCNNNNNNN<;X  =X #  ;;  ........CCCCCCCCCCCCCCCCCCC",
"CCCCCCCCCCCCCCNNNNNNNN>#  +%X+  X>= ..........CCCCCCCCCCCCCCCCCC",
"CCCCCCCCCCCCCNNNNNNNNN=#  =++X  +% ...........CCCCCCCCCCCCCCCCCC",
"CCCCCCCCCCCCCNNNNNNNN>#+  #  X  ## ...........CCCCCCCCCCCCCCCCCC",
"CCCCCCCCCCCCNNNNNNNNN;#X++X    +#;............CCCCCCCCCCCCCCCCCC",
"CCCCCCCCCCCCNNNNNNNNN=#  +    X+=.............CCCCCCCCCCCCCCCCCC",
"CCCCCCCCCCCCNNNNNNNNN%XX XX   +% .............CCCCCCCCCCCCCCCCCC",
"CCCCCCCCCCCCNNNNNNNNNX X+     +; .............CCCCCCCCCCCCCCCCCC",
"CCCCCCCCCCCNNNNNNNNN<   X   X % ..............CCCCCCCCCCCCCCCCCC",
"CCCCCCCCCCCNNNNNNNNN>  X   +  .................CCCCCCCCCCCCCCCCC",
"CCCCCCCCCCCNNNNNNNNN;  X     #O................CCCCCCCCCCCCCCCCC",
"CCCCCCCCCCCNNNNNNNNN<  X   +%o.@...............CCCCCCCCCCCCCCCCC",
"CCCCCCCCCCCNNNNNNNNN%  %   ;<N .O..............CCCCCCCCCCCCCCCCC",
"CCCCCCCCCCCNNNNNNNNN%X =+#=>zB .O..............CCCCCCCCCCCCCCCCC",
"CCCCCCCCCCCNNNNNNNNN>>=;<=;McMB O..............CCCCCCCCCCCCCCCCC",
"CCCCCCCCCCCCNNNNNNNNN<;;<>MnNlNB.@.............CCCCCCCCCCCCCCCCC",
"CCCCCCCCCCCCMzmNNNNNNNNNNNNmNzbN-4.............CCCCCCCCCCCCCCCCC",
"CCCCCCCCCdddznMmcNNNNNNNNNNMMnvMN6............CCCCCCCCCCCCCCCCCC",
"CCCCCCCCddddasnMNcnNNNNNNNNNmMcvN5............CCCCCCCCCCCCCCCCCC",
"CCCCCCCCCaaeatdddNNMMMmMMNNNMmcxN*............CCCCCCCCCCCCCCCCCC",
"CCCCCCCCCddpdsdaa2ynMNNNNMmMNlczN*...........CCCCCCCCCCCCCCCCCCC",
"CCCCCCCCCCCCpaay& 3dddspbmbbniNMN6..........CCCCCCCCCCCCCCCCCCCC",
"CCCCCCCCCCCCCCCCrsdrasddseddxmlNd.........CCCCCCCCCCCCCCCCCCCCCC",
"CCCCCCCCCCCCCCCCdduadssassspraudCCCCCCCCCCCCCCCCCCCCCCCCCCCCCCCC",
"CCCCCCCCCCCCCCCCtpsdsdsssapssdCCCCCCCCCCCCCCCCCCCCCCCCCCCCCCCCCC",
"CCCCCCCCCCCCCCCCddpssysdrddddCCCCCCCCCCCCCCCCCCCCCCCCCCCCCCCCCCC",
"CCCCCCCCCCCCCCCCCCddadddddCCCCCCCCCCCCCCCCCCCCCCCCCCCCCCCCCCCCCC",
"CCCCCCCCCCCCCCCCCCCCCCCCCCCCCCCCCCCCCCCCCCCCCCCCCCCCCCCCCCCCCCCC",
"CCCCCCCCCCCCCCCCCCCCCCCCCCCCCCCCCCCCCCCCCCCCCCCCCCCCCCCCCCCCCCCC",
"CCCCCCCCCCCCCCCCCCCCCCCCCCCCCCCCCCCCCCCCCCCCCCCCCCCCCCCCCCCCCCCC",
"CCCCCCCCCCCCCCCCCCCCCCCCCCCCCCCCCCCCCCCCCCCCCCCCCCCCCCCCCCCCCCCC",
"CCCCCCCCCCCCCCCCCCCCCCCCCCCCCCCCCCCCCCCCCCCCCCCCCCCCCCCCCCCCCCCC"
};
