/* XPM */
static char *result[] = {
/* columns rows colors chars-per-pixel */
"64 64 58 1 ",
"  c black",
". c #010101",
"X c gray3",
"o c #090909",
"O c #111111",
"+ c #191919",
"@ c #202020",
"# c gray13",
"$ c gray16",
"% c #313131",
"& c #393939",
"* c #6E0000",
"= c #7D0000",
"- c #432702",
"; c #522F03",
": c #703F04",
"> c #7F4704",
", c #494949",
"< c #515151",
"1 c gray35",
"2 c gray38",
"3 c DimGray",
"4 c #717171",
"5 c #8C0000",
"6 c #9B0000",
"7 c #AA0000",
"8 c #B90000",
"9 c #C80000",
"0 c #D70000",
"q c #E60000",
"w c #F50000",
"e c #804704",
"r c #8E4F05",
"t c #8F4F05",
"y c #9D5706",
"u c #AC5F07",
"i c #BB6708",
"p c #BC6708",
"a c #CA6F09",
"s c #CB6F09",
"d c #E87F0B",
"f c #E97F0B",
"g c #F6932D",
"h c #818181",
"j c #898989",
"k c gray57",
"l c #989898",
"z c gray60",
"x c gray63",
"c c #B1B1B1",
"v c #B9B9B9",
"b c #C1C1C1",
"n c gray82",
"m c gray85",
"M c #E1E1E1",
"N c #E9E9E9",
"B c white",
"V c None",
/* pixels */
"VVVVVVVVVVVVVVVVVVVVVVVVVVqqVVVVVVVVVVVw00VVVVVVVVVVVVVVVVVVVVVV",
"VVVVVVVVVVVVVVVVVVVVVVVVVVq00VVVVVVVV0000VVVVVVVVVVVVVVVVVVVVVVV",
"VVVVVVVVVVVVVVVVVVVVVVVVVVV067VVVVVVV0w0VVVVVVVVVVVVVVVVVVVVVVVV",
"VVVVVVVVVVVVVVVVVVVVVVVVVVV08*9VVVV0976VVVVVVVVVVVVVVVVVVVVVVVVV",
"VVVVVVVVVVVVVVVVVVVVVVVVVVVV055VVV97968VVVVVVVVVVVVVVVVVVVVVVVVV",
"VVVVVVVVVVVVVVVVVVVVVVVVVVV  980.8896  VVVVVVVVVVVVVVVVVVVVVVVVV",
"VVVVVVVVVVVVVVVVVVVVVVVV.... 0868988       VVVVVVVVVVVVVVVVVVVVV",
"VVVVVVVVVVVVVVVVVVVVVV09......98880    00000VVVVVVVVVVVVVVVVVVVV",
"VVVVVVVVVVVVVVVVVVVV9980889970957900000087000VVVVVVVVVVVVVVVVVVV",
"VVVVVVVVVVVVVVVVVVVV007888776657800897=7 ....VVVVVVVVVVVVVVVVVVV",
"VVVVVVVVVVVVVVVVVVVV......000099080707.......VVVVVVVVVVVVVVVVVVV",
"VVVVVVVVVVVVVVVVVVVV......................... VVVVVVVVVVVVVVVVVV",
"VVVVVVVVVVVVVVVVVVV  .......................  VVVVVVVVVVVVVVVVVV",
"VVVVVVVVVVVVVVVVVVV   .......................  VVVVVVVVVVVVVVVVV",
"VVVVVVVVVVVVVVVVVVV   .......................  VVVVVVVVVVVVVVVVV",
"VVVVVVVVVVVVVVVVVV    .......................  VVVVVVVVVVVVVVVVV",
"VVVVVVVVVVVVVVVVVV    .......................   VVVVVVVVVVVVVVVV",
"VVVVVVVVVVVVVVVVVV    .......................   VVVVVVVVVVVVVVVV",
"VVVVVVVVVVVVVVVVVV    .......................   VVVVVVVVVVVVVVVV",
"VVVVVVVVVVVVVVVVVV    .......................   VVVVVVVVVVVVVVVV",
"VVVVVVVVVVVVVVVVV     ............................VVVVVVVVVVVVVV",
"VVVVVVVVVVVVVVVVV     ............................ VVVVVVVVVVVVV",
"VVVVVVVVVVVVVVVV..... ............................  VVVVVVVVVVVV",
"VVVVVVVVVVVVVVV...... ............................. VVVVVVVVVVVV",
"VVVVVVVVVVVVVV.....................................  VVVVVVVVVVV",
"VVVVVVVVVVVVV.......................................   VVVVVVVVV",
"VVVVVVVVVVV ........................................... VVVVVVVV",
"VVVVVVVVVVV............................................  VVVVVVV",
"VVVVVVVVVV..............................................  VVVVVV",
"VVVVVVVVV...............................................   VVVVV",
"VVVVVVVVV................................................  VVVVV",
"VVVVVVVV.......... ......................................   VVVV",
"VVVVVVVV.......... ..................................%1$.   VVVV",
"VVVVVVV .........  .................................+NB3..   VVV",
"VVVVVVV.....&k2o   .................................kBBx...  VVV",
"VVVVVV ....%BBzX ...................................BBBm&...  VV",
"VVVVVV....$zBB1  ...................................BBnn4...  VV",
"VVVVV ...+2BBB@  ...................................lBBbh#...  V",
"VVVV ...o,MBBB   ...................................VVBBc,o..   ",
"VVVV ...&jBBBB   ...................................VVVBBj$...  ",
"VVVV ..O3NBBBVV  .................................  VVVBBB1O..  ",
"VVV ...,cBBBVVV  .................................  VVVVBBN1O.  ",
"VVV ..okBBBvVVV  .................................  VVVVBBBn,.. ",
"VVV ..%BBBVVVVV  .................................  VVVVVVBb2.. ",
"VVV ..BBBBVVVVVV .................................  VVVVVVBBb.. ",
"VVV .<BBBVVVVVVV  ...............................   VVVVVVVBBj..",
"VVV .nBBVVVVVVVVV ...............................  VVVVVVVVVNn..",
"VVV .nB<VVVVVVVVV ...............................  VVVVVVVVV,,..",
"VVVV.<VVVVVVVVVVV ..............................   VVVVVVVVVVV..",
"VVVVVVVVVVVVVVVVVV ............................   VVVVVVVVVVVVVV",
"VVVVVVVVVVVVVVVVVV  ...........................   VVVVVVVVVVVVVV",
"VVVVVVVVVVVVVVVVVVV ...........................  VVVVVVVVVVVVVVV",
"VVVVVVVVVVVVVVVVVVVV .......................... VVVVVVVVVVVVVVVV",
"VVVVVVVVVVVVVVVVVVVV  ......................    VVVVVVVVVVVVVVVV",
"VVVVVVVVVVVVVVVVVVVVViii....................iiiVVVVVVVVVVVVVVVVV",
"VVVVVVVVVVVVVVVVVVVViiriyii............VVii:puiiVVVVVVVVVVVVVVVV",
"VVVVVVVVVVVVVVVVVVVigeuupiiVVVVVVVVVVVVVVidpu;yuVVVVVVVVVVVVVVVV",
"VVVVVVVVVVVVVVVVVVVVtuiaa>sVVVVVVVVVVVVVVV-fyriVVVVVVVVVVVVVVVVV",
"VVVVVVVVVVVVVVVVVVVVVVVVVVVVVVVVVVVVVVVVVVVVVVVVVVVVVVVVVVVVVVVV",
"VVVVVVVVVVVVVVVVVVVVVVVVVVVVVVVVVVVVVVVVVVVVVVVVVVVVVVVVVVVVVVVV",
"VVVVVVVVVVVVVVVVVVVVVVVVVVVVVVVVVVVVVVVVVVVVVVVVVVVVVVVVVVVVVVVV",
"VVVVVVVVVVVVVVVVVVVVVVVVVVVVVVVVVVVVVVVVVVVVVVVVVVVVVVVVVVVVVVVV",
"VVVVVVVVVVVVVVVVVVVVVVVVVVVVVVVVVVVVVVVVVVVVVVVVVVVVVVVVVVVVVVVV",
"VVVVVVVVVVVVVVVVVVVVVVVVVVVVVVVVVVVVVVVVVVVVVVVVVVVVVVVVVVVVVVVV"
};
