/* XPM */
static char *result[] = {
/* columns rows colors chars-per-pixel */
"64 64 42 1 ",
"  c #171D20",
". c #1E1E3C",
"X c #1F1F3D",
"o c #1E203D",
"O c #1F213E",
"+ c #21272D",
"@ c #20223F",
"# c #2C323A",
"$ c #222542",
"% c #262845",
"& c #272A45",
"* c #282A47",
"= c #2F3658",
"- c #4D526F",
"; c #515773",
": c #4F6476",
"> c #556A7B",
", c #536386",
"< c #546487",
"1 c #556588",
"2 c #56678A",
"3 c #8F9CB3",
"4 c #98A8C4",
"5 c #9AAAC6",
"6 c #9DABC7",
"7 c #A0ADC8",
"8 c #A2B2CD",
"9 c #A4B2CD",
"0 c #A6B4CF",
"q c #A9B7D2",
"w c #9DC5CE",
"e c #96CDCD",
"r c #9CCECF",
"t c #A6CBD5",
"y c #A6CCD6",
"u c #A6CDD6",
"i c #A0D2D4",
"p c #A5D7D8",
"a c #A6DBD9",
"s c #B5E0DE",
"d c #D8D9DA",
"f c None",
/* pixels */
"ffffffffffffffffffffffffffffffffffffffffffffffffffffffffffffffff",
"ffffffffffffffffffffffffffffffffffffffffffffffffffffffffffffffff",
"ffffffffffffffffffffffffffffffffffffffffffffffffffffffffffffffff",
"ffffffffffffffffffffffffffffffffffffffffffffffffffffffffffffffff",
"ffffffffffffffffffffffffffffffffffffffffffffffffffffffffffffffff",
"ffffffffffffffffffffffffffffffffffffffffffffffffffffffffffffffff",
"ffffffffffffffffffffffffffffffffffffffffffffffffffffffffffffffff",
"ffffffffffffffffffffffffffffffffffffffffffffffffffffffffffffffff",
"ffffffffffffffffffffffffffff.......fffffffffffffffffffffffffffff",
"ffffffffffffffffffffffff....aaaaaa.....fffffffffffffffffffffffff",
"fffffffffffffffffffffff..aaaaaaaaaaa>>>....fffffffffffffffffffff",
"fffffffffffffffffffff..aaaattttttttttttt:::......fffffffffffffff",
"ffffffffffffffffffff.aaaayyqqqqqqqqqqqqqwww;;;;;;.....ffffffffff",
"ffffffffffffffffff...aauuqqqqqqqqqqqqqqqqqqqqqqqqq---...ffffffff",
"fffffffffffffff=..aaaaqqqqqqqqqqqqqqqqqqqqqqqqqqqqqqqqq%.fffffff",
"ffffffffffffff..aaaaaqqqqqqqqqqqqqqqqqqqqqqqqqqqqqqqqqqqq.ffffff",
"ffffffff......aaaaaaqqqqqqqqqqqqqqqqqqqqqqqqqqqqqqqqqqqqqq.fffff",
"ffffff.&aaaaaaaaaqqqqqqqqqqqqqqqqqqqqqqqqqqqqqqqqqqqqqqqqqq.ffff",
"fffff.aar..aaaqqqqqqqqqqqqqqqqqqqqqqqqqqqqqqqqqqqqqqqqqqqqqq.fff",
"ffff.aar&a.qqqqqqqqqqqqqqqqqqqqqqqqqqqqqqqqqqqqqqqqqqqqqqqqqq.ff",
"ffff.aaai2.qqqqqqqqqqqqqqqqqqqqqqqqqqqqqqqqqqqqqqqqqqqqqqqqqqq.f",
"fff.aapq8,qqqqqqqqqqqqqqqqqqqqqqqqqqqqqqqqqqqqqqqqqqqqqqqqqqqqq.",
"fff.aaqqqqqqqqqqqqqqqqqqqqqqqqqqqqqqqqqqqqqqqqq2qqqqqqqqqqqq4qq.",
"fff.as3qqqqqqqqqqqqqqqqqqqqqqqqqqqqqqqqqqqqqqqq2qqqqqqqqqqqq2qq.",
"fff.ad qqqqqqqqqqqqqqqqqqqqqqqq5qqqqqqqqqqqqqqq2qqqqqqqqqqqq2qq.",
"fff.a+#qqqqqqqqqqqqqqqqqqqqqqqq26qqqqqqqqqqqqqq2qqqqqqqqqqqq26q.",
"ff.aaqqqqqqqqqqqqqqqqqqqqqqqqqq222qqqqqqqqqqqqq2qqqqqqqqqqqq2..f",
"ff.aqqqqqqqqqqqqqqqqqqqqqqqqqqqq222qqqqqqqqqqq22qqqqqqqqqqqq2.ff",
"f.eqqqqqqqq...........qqqqqqqqqq2222qqqqqqqqqq222qqqqqqqqqqq2.ff",
"f..qqq*q7..ffffff.2222.qqqqqqqqqq222222qqqqqqq222qqqqqqqqqqq.fff",
"f..qq.q7$fffffffff.2222.qqqqqqqqq22222222qqqq2222qqqqqqqqqqq.fff",
"ff.....$fffffffffff.2222.qqqqqqqq22222222222222222qqqqqqqqqq.fff",
"ffffffffffffffffffff.222.qqqqqqqq22....22222222222qqqqqqqqq.ffff",
"ffffffffffffffffffff.222O9qqqqqqq.@ffff@@@.<<<<<<<9qqqqqqqq.ffff",
"ffffffffffffffffffff.2222.qqqqqqq.ffffffff.OOOOOOO.qqqqqqqq.ffff",
"ffffffffffffffffffff.2222o0qqqqqq.ffffffffX1222222.qqqqqqq0.ffff",
"ffffffffffffffffffff.22222.qqqqqq.fffffffff.222222.qqqqqqq.fffff",
"ffffffffffffffffffff.22222.qqqqqq.fffffffff.2222222.qqqqqq.fffff",
"fffffffffffffffffff..22222.qqqqqq.fffffffff.2222222.qqqqqq.fffff",
"ffffffffffffffffff.2222222.qqqqqq.fffffffff.2222222.qqqqqq.fffff",
"fffffffffffffffff.2222222..qqqqqq.ffffffff..2222222.qqqqqq.fffff",
"fffffffffffffffff.222222.eeqqqqqq.ffffffff22222222..qqqqqq.fffff",
"ffffffffffffffffff......qqqqqqqqq.fffffff.2222222.qqqqqqqq.fffff",
"fffffffffffffffffffffff.qqqqqqqqq.fffffff.222222.qqqqqqqqq.fffff",
"ffffffffffffffffffffffff.........fffffffff.......qqqqqqqqq.fffff",
"fffffffffffffffffffffffffffffffffffffffffffffffff.........ffffff",
"ffffffffffffffffffffffffffffffffffffffffffffffffffffffffffffffff",
"ffffffffffffffffffffffffffffffffffffffffffffffffffffffffffffffff",
"ffffffffffffffffffffffffffffffffffffffffffffffffffffffffffffffff",
"ffffffffffffffffffffffffffffffffffffffffffffffffffffffffffffffff",
"ffffffffffffffffffffffffffffffffffffffffffffffffffffffffffffffff",
"ffffffffffffffffffffffffffffffffffffffffffffffffffffffffffffffff",
"ffffffffffffffffffffffffffffffffffffffffffffffffffffffffffffffff",
"ffffffffffffffffffffffffffffffffffffffffffffffffffffffffffffffff",
"ffffffffffffffffffffffffffffffffffffffffffffffffffffffffffffffff",
"ffffffffffffffffffffffffffffffffffffffffffffffffffffffffffffffff",
"ffffffffffffffffffffffffffffffffffffffffffffffffffffffffffffffff",
"ffffffffffffffffffffffffffffffffffffffffffffffffffffffffffffffff",
"ffffffffffffffffffffffffffffffffffffffffffffffffffffffffffffffff",
"ffffffffffffffffffffffffffffffffffffffffffffffffffffffffffffffff",
"ffffffffffffffffffffffffffffffffffffffffffffffffffffffffffffffff",
"ffffffffffffffffffffffffffffffffffffffffffffffffffffffffffffffff",
"ffffffffffffffffffffffffffffffffffffffffffffffffffffffffffffffff",
"ffffffffffffffffffffffffffffffffffffffffffffffffffffffffffffffff"
};
