/* XPM */
static char *result[] = {
/* columns rows colors chars-per-pixel */
"32 32 165 2 ",
"   c #35090D",
".  c #3B141A",
"X  c #450000",
"o  c #4E0103",
"O  c #5A0707",
"+  c #5D0B0B",
"@  c #421619",
"#  c #58191C",
"$  c #651F1F",
"%  c #691218",
"&  c #771E1D",
"*  c #741211",
"=  c #7B211E",
"-  c #771B20",
";  c #6E2323",
":  c #7A2423",
">  c #7A2927",
",  c #792B29",
"<  c #8A1E1C",
"1  c #AA1E19",
"2  c #A8211E",
"3  c #832B26",
"4  c #8B2C27",
"5  c #832D2A",
"6  c #8A2F29",
"7  c #862523",
"8  c #942C2C",
"9  c #9E2D2B",
"0  c #97342B",
"q  c #9F352F",
"w  c #8B3B3B",
"e  c #923937",
"r  c #9D3B39",
"t  c #A52E25",
"y  c #A5302A",
"u  c #A53B2D",
"i  c #AC3A2E",
"p  c #B4332D",
"a  c #B53A2D",
"s  c #BB3E2D",
"d  c #BC3A26",
"f  c #A13D39",
"g  c #B33C33",
"h  c #B13732",
"j  c #CA382F",
"k  c #C4342D",
"l  c #D1342B",
"z  c #CE3931",
"x  c #D33930",
"c  c #94433F",
"v  c #AF432F",
"b  c #B7432E",
"n  c #A74130",
"m  c #AE423C",
"M  c #AB4230",
"N  c #BA4431",
"B  c #B84038",
"V  c #B94932",
"C  c #BE5430",
"Z  c #C5422F",
"A  c #CC442E",
"S  c #CE4E2A",
"D  c #D5462F",
"F  c #D6482F",
"G  c #C34431",
"H  c #CE4730",
"J  c #C64B32",
"K  c #CA4E33",
"L  c #D74831",
"P  c #D94930",
"I  c #C65333",
"U  c #CD5234",
"Y  c #CC5C35",
"T  c #D15534",
"R  c #D95736",
"E  c #D45A35",
"W  c #DA5D35",
"Q  c #E1472C",
"!  c #D56434",
"~  c #DC6335",
"^  c #DF6835",
"/  c #E36237",
"(  c #E26C36",
")  c #E66538",
"_  c #EB7436",
"`  c #9F3E40",
"'  c #8A4A43",
"]  c #9E4D48",
"[  c #905958",
"{  c #AB4541",
"}  c #A64C45",
"|  c #B24741",
" . c #BB4641",
".. c #B24943",
"X. c #B34C4A",
"o. c #B6514A",
"O. c #A15652",
"+. c #B95852",
"@. c #B85A56",
"#. c #BB645D",
"$. c #947576",
"%. c #AD6963",
"&. c #B06A61",
"*. c #B26F68",
"=. c #A0706F",
"-. c #AD7068",
";. c #B97A6C",
":. c #A87C79",
">. c #B57D73",
",. c #D84F48",
"<. c #C2534C",
"1. c #D87042",
"2. c #CE6558",
"3. c #C0635C",
"4. c #DA635C",
"5. c #E26F40",
"6. c #F3705B",
"7. c #C56662",
"8. c #C46E63",
"9. c #DD6660",
"0. c #DC6A62",
"q. c #C2766E",
"w. c #CA7870",
"e. c #E77066",
"r. c #FD7672",
"t. c #E18076",
"y. c #FF8376",
"u. c #A58080",
"i. c #BE8B87",
"p. c #DF8780",
"a. c #C79287",
"s. c #E18F89",
"d. c #E78B83",
"f. c #FF8F84",
"g. c #FE8F89",
"h. c #FF9385",
"j. c #FF9F8F",
"k. c #F29388",
"l. c #ED9791",
"z. c #EE9A94",
"x. c #D6AC9F",
"c. c #F4A29A",
"v. c #D3B3AB",
"b. c #D7B7B0",
"n. c #E3AFA3",
"m. c #EEB2A4",
"M. c #FFBDBB",
"N. c #F7CDA1",
"B. c #EDC3BF",
"V. c #F2C0B3",
"C. c #F6CBC2",
"Z. c #FFCEC4",
"A. c #E5D5CD",
"S. c #FFD9C3",
"D. c #F9D4C9",
"F. c #FFD9D3",
"G. c #FFE9D3",
"H. c #FFE3DB",
"J. c #FFF1DF",
"K. c #F9E5E5",
"L. c #FFF5ED",
"P. c #FFFFEF",
"I. c #FFFFF5",
"U. c white",
"Y. c None",
/* pixels */
"Y.Y.Y.Y.Y.Y.Y.Y.Y.Y.Y.Y.Y.Y.Y.Y.Y.Y.Y.Y.Y.Y.Y.Y.Y.Y.Y.Y.Y.Y.Y.Y.",
"Y.Y.Y.Y.Y.Y.Y.Y.Y.Y.Y.Y.Y.Y.Y.Y.Y.Y.Y.Y.Y.Y.Y.Y.Y.Y.Y.Y.Y.Y.Y.Y.",
"Y.Y.Y.Y.Y.Y.Y.Y.p.7.7.X.Y.Y.Y.Y.Y.Y.Y.Y.Y.Y.Y.Y.Y.Y.Y.Y.Y.Y.Y.Y.",
"Y.Y.Y.Y.Y.Y.Y.U.r ] ] c U.Y.Y.Y.Y.Y.Y.Y.Y.Y.Y.Y.Y.Y.Y.Y.Y.Y.Y.Y.",
"Y.Y.Y.Y.Y.@.e i.Y.Y.Y.Y.Y.Y.Y.Y.Y.Y.Y.Y.Y.Y.Y.Y.Y.Y.Y.Y.Y.Y.Y.Y.",
"Y.Y.Y.Y.n.d.p.B.Y.Y.Y.Y.Y.9.9.9.0.0.4.Y.Y.Y.Y.Y.Y.Y.Y.Y.Y.Y.Y.Y.",
"Y.Y.Y.g.O.Y.Y.Y.Y.Y.Y.Y.y.7 3 3 3 3 7 w.Y.Y.Y.Y.Y.Y.Y.Y.Y.Y.Y.Y.",
"Y.Y.Y.g.; f { ....{ { ] ( _ _ E T A H N 7 Y.Y.Y.Y.Y.Y.Y.Y.Y.Y.Y.",
"Y.Y.d.8.; d } =.# 6 i I E V ( ! ~ J Z s 0 >.Y.Y.Y.Y.Y.Y.Y.Y.Y.Y.",
"Y.Y.+.> 6 Q -.$.  u A ( i N ^ ^ ^ J Z Z y 3 ;.A.Y.Y.Y.Y.Y.Y.Y.Y.",
"Y.Y.o.a H F , @ . v T J E W 8 ! ^ K Z N 8 / Y % J.Y.Y.Y.Y.Y.Y.Y.",
"Y.Y.F.2.3 A q n u R W E / E 8 W W U a i Y ) I p ;.Y.Y.Y.Y.Y.Y.Y.",
"Y.Y.D.Z.%.A J J J E E T E I 8 E I G u V _ ~ U D : f.Y.Y.Y.Y.Y.Y.",
"Y.Y.} z.Y.| & 5 > = > 7 & 3 : = 6 9 ^ _ _ I J D : h.Y.Y.Y.Y.Y.Y.",
"Y.Y.D.a.-.* m.b.+ M.v.O B.v.O D.x.$ ! ^ Y j Z D : h.Y.Y.Y.Y.Y.Y.",
"Y.Y.Y.M.*.' L.I.o P.U.  U.Y.#.Y.U.[ 1.C K Z Z D : h.Y.Y.Y.Y.Y.Y.",
"Y.Y.Y.Y.Y.Y.Y.N.- I.U.+ U.Y.Y.Y.Y.Y.:., R G A F : h.Y.Y.Y.Y.Y.Y.",
"Y.Y.Y.Y.Y.Y.Y.Y.S.Y.Y.G.Y.Y.Y.Y.Y.Y.:., g i i P : h.Y.Y.Y.Y.Y.Y.",
"Y.Y.Y.Y.Y.Y.Y.Y.Y.Y.Y.Y.Y.Y.Y.Y.Y.K.%.0 N v N A - h.Y.Y.Y.Y.Y.Y.",
"Y.Y.Y.Y.Y.Y.Y.Y.Y.Y.Y.Y.Y.Y.Y.Y.U.# S ) ( L K t f j.Y.Y.Y.Y.Y.Y.",
"Y.Y.Y.Y.Y.Y.Y.Y.Y.Y.Y.Y.Y.Y.c.q.3.< / W K K N m Y.Y.Y.Y.Y.Y.Y.Y.",
"Y.Y.Y.Y.Y.Y.Y.Y.Y.Y.Y.Y.Y.H.2 9 y u R T v b 6.t.Y.Y.Y.Y.Y.Y.Y.Y.",
"Y.Y.Y.Y.Y.Y.Y.Y.Y.Y.Y.Y.z.g l z j i i g ` w g.Y.Y.Y.Y.Y.Y.Y.Y.Y.",
"Y.Y.Y.Y.Y.Y.Y.Y.Y.Y.Y.e.,.k x 9 4 ; ; r.Y.Y.Y.Y.Y.Y.Y.Y.Y.Y.Y.Y.",
"Y.Y.Y.Y.Y.Y.Y.Y.Y.Y.Y.<.p p 1 k.4.#.@.Y.Y.Y.Y.Y.Y.Y.Y.Y.Y.Y.Y.Y.",
"Y.Y.Y.Y.Y.Y.Y.Y.Y.Y.Y.0. . .h U.Y.Y.Y.Y.Y.Y.Y.Y.Y.Y.Y.Y.Y.Y.Y.Y.",
"Y.Y.Y.Y.Y.Y.Y.Y.Y.Y.Y.Y.Y.Y.Y.Y.Y.Y.Y.Y.Y.Y.Y.Y.Y.Y.Y.Y.Y.Y.Y.Y.",
"Y.Y.Y.Y.Y.Y.Y.Y.Y.Y.Y.Y.Y.Y.Y.Y.Y.Y.Y.Y.Y.Y.Y.Y.Y.Y.Y.Y.Y.Y.Y.Y.",
"Y.Y.Y.Y.Y.Y.Y.Y.Y.Y.Y.Y.Y.Y.Y.Y.Y.Y.Y.Y.Y.Y.Y.Y.Y.Y.Y.Y.Y.Y.Y.Y.",
"Y.Y.Y.Y.Y.Y.Y.Y.Y.Y.Y.Y.Y.Y.Y.Y.Y.Y.Y.Y.Y.Y.Y.Y.Y.Y.Y.Y.Y.Y.Y.Y.",
"Y.Y.Y.Y.Y.Y.Y.Y.Y.Y.Y.Y.Y.Y.Y.Y.Y.Y.Y.Y.Y.Y.Y.Y.Y.Y.Y.Y.Y.Y.Y.Y.",
"Y.Y.Y.Y.Y.Y.Y.Y.Y.Y.Y.Y.Y.Y.Y.Y.Y.Y.Y.Y.Y.Y.Y.Y.Y.Y.Y.Y.Y.Y.Y.Y."
};
