/* XPM */
static char *result[] = {
/* columns rows colors chars-per-pixel */
"64 64 37 1 ",
"  c #3A00FA",
". c #3A01FA",
"X c #370AFA",
"o c #360CFA",
"O c #204EFA",
"+ c #1D59FA",
"@ c #1D58FA",
"# c #1C59FA",
"$ c #370BFA",
"% c #360BFA",
"& c #3316FA",
"* c #1C5AFA",
"= c #1965FA",
"- c #1966FA",
"; c #1A6EFA",
": c #1A6CFA",
"> c #1C5CFA",
", c #1963FA",
"< c #1964FA",
"1 c #20A9FA",
"2 c #249EFA",
"3 c #3420FA",
"4 c #3709FA",
"5 c #1E61FA",
"6 c #259DFA",
"7 c #2892FA",
"8 c #3813FA",
"9 c #360DFA",
"0 c #3715FA",
"q c #3814FA",
"w c #3A03FA",
"e c #1E62FA",
"r c #3716FA",
"t c #249CFA",
"y c #26A6FA",
"u c #25A7FA",
"i c white",
/* pixels */
"                                                                ",
"                                                                ",
"                                                                ",
"                       .XooooooX.                               ",
"                       XO+@@@@#O$                               ",
"               .Xooooo%&*==-;:>O$          .XooooooooooooooX.   ",
"               $O*+++++*,=<;1234.          XO+@@@@@@@@++++*O$   ",
"               $O*++++++@@@5678    .Xooooo%&*======-;:>+++*O$   ",
"               .Xoooooooooo90qw    $O*+++++*,=====<;123%oooX.   ",
"   .XooooooooX.                    $O*++++++@@@@@@@5678         ",
"   $O*++++++*O$                    .Xoooooooooooooo90qw         ",
"   $O*++++++*O$                                                 ",
"   .XooooooooX.                                                 ",
"                                                 .XooooooooooX. ",
"                                                 $O*++++++++*OX ",
"                               .XooooooX.        $O*++++++++*OX ",
"                               XO+@@@@#O$        .XooooooooooX. ",
"                         .Xooo%&*==-;:>O$                       ",
"                         $O*+++*,=<;1234.                       ",
"     .Xoooooooooo90qw    $O*++++@@@5678  .XooooooooooX.         ",
"     $O*++++++++@e27q    .Xoooooooo90qw  $O*++++++++*O$         ",
"     $O*++++++++@e27q                    $O*++++++++*O$         ",
"     .Xoooooooooo90qw                    .XooooooooooX.         ",
"                                                                ",
"                                                                ",
"                                               wq09ooooooooX.   ",
"                                               8765@@@@@@@#O$   ",
"               .XooooooooooooX.          .Xooo%321;<===-;:>O$   ",
"               XO+@@@@++++++*O$          $O*+++>:;-===<;1234.   ",
"       .Xooooo%&*====,*+++++*O$          $O*++++@@@@@@@5678     ",
"       $O*+++++*,====*&%oooooX.          .Xoooooooooooo90qw     ",
"       $O*++++++@@@@+OX                                         ",
"       .XooooooooooooX.                                         ",
"                                       .XooooooooX.             ",
"                                       XO+@@@@++*O$             ",
"                               .Xooooo%&*==-;:>+*O$             ",
"                               $O*+++++*,=<;123%oX.             ",
"           .XooooooooooX.      $O*++++++@@@5678                 ",
"           $O*++++++++*O$      .Xoooooooooo90qw                 ",
"           $O*++++++++*O$                                       ",
"           .Xooo%%%%%%%X.                                       ",
"               .X%%%%%%%oooooooooooooooooX.                     ",
"               XO+@@@@@@@@@@@@@@++++++++*O$                     ",
"       .Xooooo%&*============-;:>+++++++*OX.Xoooooooooooooo90qw ",
"       $O*+++++*,===========<;123%oooooooX.XO*++++++++++++@e278 ",
"       $O*++++++@@@@@@@@@@@@@5678          $O*++++++++++++@e278 ",
"       .Xoooooooooooooooooooo90qw          .Xoooooooooooooo90qw ",
"                                                                ",
"                                                                ",
"                     .XooooooooooX.                             ",
"                     XO+@@++++++*O$                             ",
"         .Xooooooooo%&*==,*+++++*O$              .XooooooooooX. ",
"         $O*+++++++++*,==*&%oooooX.              XO+@@@@@@++*OX ",
"         $O*++++++++++@@+OX                .Xooo%&*======,*+*OX ",
"         .XooooooooooooooX.                $O*+++*,======*&%oX. ",
"                                           $O*++++@@@@@@+OX     ",
"                                           .X%%%%%%%%%%%%X      ",
"                       .XooooooooooooooX.  .X%%%%%%%%%%%%o0rr8w ",
"                       $O*++++++++++++*O$  $O*++++++++++@etyu78 ",
"   .Xoooooooooooo90qw  $O*++++++++++++*O$  $O*++++++++++@etyu78 ",
"   $O*++++++++++@e27q  .XooooooooooooooX.  .Xoooooooooooo90rr8w ",
"   $O*++++++++++@e27q                                           ",
"   .Xoooooooooooo908w                                           ",
"                                                                "
};
